<svg xmlns="http://www.w3.org/2000/svg" id="Capa_1" viewBox="0 0 1145.97 268.15"><defs><style>.cls-1{fill:#cfff20;}</style></defs><path class="cls-1" d="M134.72,104.78c-8.08,0-14.65,6.57-14.65,14.65s6.57,14.65,14.65,14.65,14.65-6.57,14.65-14.65-6.57-14.65-14.65-14.65Z"></path><path class="cls-1" d="M134.72,58.38c-41.45,0-75.05,33.6-75.05,75.05s33.6,75.05,75.05,75.05,75.05-33.6,75.05-75.05-33.6-75.05-75.05-75.05Zm25.35,93.05c0,13.98-11.37,25.35-25.35,25.35s-25.35-11.37-25.35-25.35v-1.04h10.7v1.04c0,8.08,6.57,14.65,14.65,14.65s14.65-6.57,14.65-14.65v-1.04h10.7v1.04Zm0-30.67h-.04c-.69,13.36-11.78,24.02-25.31,24.02s-25.35-11.37-25.35-25.35,11.37-25.35,25.35-25.35c5.45,0,10.51,1.74,14.65,4.68v-3.05h10.7v25.04Z"></path><path class="cls-1" d="M391.62,102.71c-4.68-6.53-11.98-10.45-20.58-10.45-16.22,0-27.77,12.52-27.77,29.84s11.54,29.84,27.77,29.84c8.6,0,15.9-3.92,20.58-10.45v8.28h11.87v-55.32h-11.87v8.28Zm-18.29,38.66c-10.56,0-18.29-8.17-18.29-19.27s7.73-19.27,18.29-19.27,18.18,8.06,18.18,19.27-7.62,19.27-18.18,19.27Z"></path><path class="cls-1" d="M458.26,126.23c0,8.82-6.97,15.14-15.14,15.14s-13.18-5.88-13.18-14.05v-32.88h-11.87v33.76c0,13.72,8.82,23.74,22.43,23.74,7.08,0,14.05-3.48,17.86-9.26v7.08h11.65v-55.32h-11.76v31.8Z"></path><path class="cls-1" d="M512.38,141.81c-9.91,0-17.42-8.28-17.53-19.71,0-11.43,7.73-19.71,17.53-19.71,7.62,0,14.37,5.12,16.12,12.3l11.32-1.42c-1.96-12.2-13.5-21.02-27.55-21.02-16.88,0-29.18,12.52-29.18,29.84s12.3,29.84,29.29,29.84c13.61,0,25.26-8.82,27.55-20.91l-11.32-1.42c-1.96,7.08-8.38,12.2-16.22,12.2Z"></path><path class="cls-1" d="M582.51,92.26c-6.97,0-13.94,3.27-17.64,8.82v-31.69h-11.87v80.36h11.87v-31.8c0-8.82,6.86-15.14,15.14-15.14s13.18,5.88,13.18,14.05v32.88h11.76v-33.86c0-13.72-8.71-23.63-22.43-23.63Z"></path><path class="cls-1" d="M646.86,92.26c-17.75,0-30.05,12.3-30.05,29.84s12.3,29.84,30.05,29.84,30.05-12.3,30.05-29.84-12.41-29.84-30.05-29.84Zm0,49.11c-10.67,0-18.18-8.06-18.18-19.27s7.51-19.27,18.18-19.27,18.29,8.06,18.29,19.27-7.73,19.27-18.29,19.27Z"></path><path class="cls-1" d="M798.59,101.95c-4.68-6.1-11.76-9.69-20.04-9.69-16.12,0-27.77,12.52-27.77,29.84s11.76,29.84,27.77,29.84c8.49,0,15.57-3.7,20.36-9.91v7.73h11.54V69.39h-11.87v32.56Zm-17.75,38.87c-10.45,0-18.29-7.73-18.29-18.73s7.73-18.73,18.29-18.73,18.18,7.95,18.18,18.73-7.62,18.73-18.18,18.73Z"></path><circle class="cls-1" cx="713.85" cy="122.54" r="6.92"></circle><path class="cls-1" d="M977.12,133.42v-29.73h13.5v-9.26h-13.5v-13.39h-9.69l-1.52,13.39h-9.15v9.26h8.49v30.49c0,10.56,6.42,17.75,16.33,17.75,3.05,0,6.97-.54,9.8-1.52v-9.47c-2.07,.65-4.68,.98-6.21,.98-5.01,0-8.06-3.48-8.06-8.49Z"></path><path class="cls-1" d="M1050.18,102.71c-4.68-6.53-11.98-10.45-20.58-10.45-16.22,0-27.77,12.52-27.77,29.84s11.54,29.84,27.77,29.84c8.6,0,15.9-3.92,20.58-10.45v8.28h11.87v-55.32h-11.87v8.28Zm-18.29,38.66c-10.56,0-18.29-8.17-18.29-19.27s7.73-19.27,18.29-19.27,18.18,8.06,18.18,19.27-7.62,19.27-18.18,19.27Z"></path><rect class="cls-1" x="1077.73" y="69.39" width="11.76" height="80.36"></rect><path class="cls-1" d="M321.49,98.26c-5.49-4.65-12.59-7.46-20.33-7.46-17.37,0-31.5,14.13-31.5,31.5s14.13,31.5,31.5,31.5,31.29-13.93,31.49-31.12h0v-29.76h-11.17v5.35Zm-20.33,44.36c-11.21,0-20.33-9.12-20.33-20.33s9.12-20.33,20.33-20.33,20.33,9.12,20.33,20.33-9.12,20.33-20.33,20.33Z"></path><path class="cls-1" d="M301.16,180.08c-11.13,0-20.19-9.06-20.19-20.19h-11.1c0,17.25,14.04,31.29,31.29,31.29s31.29-14.04,31.29-31.29h-11.1c0,11.13-9.06,20.19-20.19,20.19Z"></path><path class="cls-1" d="M904.83,98.26c-5.49-4.65-12.59-7.46-20.33-7.46-17.37,0-31.5,14.13-31.5,31.5s14.13,31.5,31.5,31.5,31.29-13.93,31.49-31.12h0v-29.76h-11.17v5.35Zm-20.33,44.36c-11.21,0-20.33-9.12-20.33-20.33s9.12-20.33,20.33-20.33,20.33,9.12,20.33,20.33-9.12,20.33-20.33,20.33Z"></path><path class="cls-1" d="M884.51,180.08c-11.13,0-20.19-9.06-20.19-20.19h-11.1c0,17.25,14.04,31.29,31.29,31.29s31.29-14.04,31.29-31.29h-11.1c0,11.13-9.06,20.19-20.19,20.19Z"></path><rect class="cls-1" x="827.59" y="94.44" width="11.9" height="55.32"></rect><path class="cls-1" d="M833.54,71.07c-3.82,0-6.92,3.1-6.92,6.92s3.1,6.92,6.92,6.92,6.92-3.1,6.92-6.92-3.1-6.92-6.92-6.92Z"></path><path class="cls-1" d="M937.48,71.07c-3.82,0-6.92,3.1-6.92,6.92s3.1,6.92,6.92,6.92,6.92-3.1,6.92-6.92-3.1-6.92-6.92-6.92Z"></path><rect class="cls-1" x="931.53" y="94.44" width="11.9" height="55.32"></rect></svg>